<?xml version="1.0" encoding="UTF-8"?>
<svg id="Capa_1" data-name="Capa 1" xmlns="http://www.w3.org/2000/svg" xmlns:xlink="http://www.w3.org/1999/xlink" viewBox="0 0 1279.26 281">
  <defs>
    <style>
      .cls-1 {
        fill: #fff;
      }

      .cls-2 {
        fill: #e6f0ff;
      }

      .cls-3 {
        fill: url(#Degradado_sin_nombre_3);
      }

      .cls-4 {
        fill: url(#Degradado_sin_nombre_2);
      }

      .cls-5 {
        fill: #35bbcf;
      }

      .cls-6 {
        fill: url(#Degradado_sin_nombre);
      }
    </style>
    <radialGradient id="Degradado_sin_nombre" data-name="Degradado sin nombre" cx="1063.05" cy="513.59" fx="1063.05" fy="513.59" r="69.75" gradientTransform="translate(1705.42 -83.35) rotate(-179.82) scale(1 -.55)" gradientUnits="userSpaceOnUse">
      <stop offset="0" stop-color="#fff"/>
      <stop offset=".19" stop-color="#d3f0f4"/>
      <stop offset=".59" stop-color="#7ed4e0"/>
      <stop offset=".87" stop-color="#49c2d4"/>
      <stop offset="1" stop-color="#35bbcf"/>
    </radialGradient>
    <radialGradient id="Degradado_sin_nombre_2" data-name="Degradado sin nombre 2" cx="639.88" cy="142.57" fx="639.88" fy="142.57" r="72.89" gradientTransform="translate(0 284) scale(1 -1)" gradientUnits="userSpaceOnUse">
      <stop offset="0" stop-color="#fff"/>
      <stop offset=".32" stop-color="#fdfefe"/>
      <stop offset=".46" stop-color="#f5fcfd"/>
      <stop offset=".57" stop-color="#e9f7fa"/>
      <stop offset=".67" stop-color="#d6f1f5"/>
      <stop offset=".75" stop-color="#bfe9f0"/>
      <stop offset=".82" stop-color="#a2e0e9"/>
      <stop offset=".89" stop-color="#7fd4e1"/>
      <stop offset=".95" stop-color="#58c7d7"/>
      <stop offset="1" stop-color="#35bbcf"/>
    </radialGradient>
    <radialGradient id="Degradado_sin_nombre_3" data-name="Degradado sin nombre 3" cx="654.34" cy="137.8" fx="654.34" fy="137.8" r="82.36" gradientTransform="translate(-24.4 255.59) rotate(4.83) scale(1 -1.16)" gradientUnits="userSpaceOnUse">
      <stop offset="0" stop-color="#fff"/>
      <stop offset=".25" stop-color="#fcfefe"/>
      <stop offset=".39" stop-color="#f4fbfc"/>
      <stop offset=".51" stop-color="#e6f7f9"/>
      <stop offset=".62" stop-color="#d2f0f4"/>
      <stop offset=".72" stop-color="#b7e7ee"/>
      <stop offset=".81" stop-color="#97dce6"/>
      <stop offset=".89" stop-color="#71cfdd"/>
      <stop offset=".97" stop-color="#46c1d3"/>
      <stop offset="1" stop-color="#35bbcf"/>
    </radialGradient>
  </defs>
  <g id="demas_letras">
    <path class="cls-2" d="M326.54,133.7c.1-15.8,0-31.6,.5-47.5,.4-13.8,4.3-26.5,13.6-36.9,7-7.8,15.7-11.4,25.8-11.5,19.1-.2,38.3-.1,57.4-.1,22,0,35.2,12.8,43.7,32.4,1.4,3.2,2.3,6.5,3.5,9.8,4.3,14,4.1,28.5,4.1,43,0,18.4-3.1,36-13,51.7-9.1,10.9-19.7,19.2-34.1,20.6-10,0-19.9-.1-29.9-.1-10.1,.1-20.1,.1-30.2,.3-2.6,0-3.7-.7-3.6-3.6,.2-10.2,.2-20.3,0-30.5-.1-3.3,1.1-3.8,3.9-3.8,16.7,.1,33.5-.5,50.1,.2,18.2,.8,28-10.5,29.3-26.4,1.1-13,1.9-26.3-2.6-39-.9-2.7-2.1-5.2-3.7-7.5-.2-.3-.5-.6-.7-.9-.3-.4-.6-.8-.8-1.2l-1-1-1-1c-.3-.3-.7-.5-1-.8l-.1-.1c-.2-.2-.5-.3-.7-.5-.3-.2-.6-.5-.9-.7-1.3-1.4-3-2-4.8-2.1h0c-2.3-1.2-4.7-.9-7.1-.9h-56.4c-8.1,0-10.9,2.4-12.5,11-.1,2.7-.4,5.3-.4,8,0,48.6-.1,97.3,.1,145.9,0,5.3-1.4,6.4-6.1,6.1-5.6-.4-11.3-.3-16.9,0-3.5,.2-4.2-1-4.2-4.5,.1-33.1,.1-66.3,0-99.4,0-1.7,.9-3.7-.8-5.1,.6-1.2,1-2.5,.5-3.9Z"/>
    <path class="cls-2" d="M274.54,37.5h36c-4.8,7.9-9.1,15-13.4,22.1-16.1,26.4-32.2,52.8-48.4,79.2-1.8,3-1.6,5,.2,7.8,13.5,21.6,26.8,43.4,40.1,65.1,.6,1,1.3,2,1.9,3.1,5.6,9.4,11.1,18.9,16.9,28.2,2.2,3.6,.8,3.6-2.1,3.6-9.7,0-19.5,.1-29.2,.2-.9-.1-1.9-.2-2.8-.2-12.1-19.7-24.2-39.4-36.2-59.2-2.8-4.6-5.7-9.2-9-14.6-3.1,5-6,9.7-8.9,14.3-11.3,18.5-22.6,37-33.7,55.6-1.7,2.9-3.6,4.4-6.8,4h-32.4c9.9-16.3,19.3-31.7,28.7-47.1,11.1-18.3,22.2-36.6,33.5-54.8,1.4-2.2,.7-3.6-.4-5.3-16.3-26.9-32.7-53.7-49-80.6-4.2-6.9-8.3-13.8-12.8-21.3h35.3c2.3,0,2.3,2.1,3.1,3.3,13.9,22.8,27.7,45.6,41.6,68.4,.5,.8,.8,1.9,2.3,2,13.6-22.3,27.2-44.8,40.9-67.2,1.2-2.3,2.3-5,4.6-6.6Z"/>
    <path class="cls-2" d="M29.54,245.4C9.74,237.6,1.14,221.2,.64,200.8-.26,159.5,.14,118.2,.04,76.9c0-7.5-.2-15,.3-22.5,.6-9.8,5.7-17,17.2-16.9,37.5,.4,74.9,.2,112.4,0,3.8,0,4.9,1,4.7,4.9-.3,9.7-.3,19.3,0,29,.1,3.6-.9,4.4-4.3,4.3-32.6-.1-65.3,0-97.9-.2-4.1,0-5.8,.8-5.7,5.5,.2,37.1,.2,74.3,.3,111.4,0,4.3,.1,8.7,3.1,12.2,2.2,4.4,6.2,3.9,9.9,3.9,29.9,.1,59.8,.1,89.7-.1,4,0,5.1,1.1,4.9,5.2-.3,9.1-.3,18.3,0,27.5,.1,4-.8,5.4-4.9,5.3-20.6-.2-41.2,0-61.8-.1-12.7,.1-25.6,1.1-38.4-.9Z"/>
    <path class="cls-2" d="M1144.34,126.7V58.7c0-4.6,.8-8.9,2.7-13,2.4-5.1,6.4-7.9,11.8-8,38-.1,75.9-.1,113.9,0,4.1,0,6.8,1.2,6.5,6.6-.4,9-.3,18,0,27,.1,3.9-1.2,4.6-4.7,4.6-32.8-.1-65.6,0-98.4-.2-3.6,0-4.9,.6-4.9,4.8,.2,36.8,.1,73.6,.1,110.4,0,2.2-.2,4.4,.2,6.5,1.4,7.9,4,11.4,12.8,11.3,29.9-.1,59.8,0,89.7-.2,3.8,0,5.3,.7,5.1,5.1-.4,9.6-.3,19.3-.1,29,.1,3.3-1,4-4.1,4-30.4-.1-60.8,0-91.2-.2-14.5-.1-25-7.3-32-20.2-5.5-10.1-7.5-21.1-7.5-32.6,.1-22.3,.2-44.6,.1-66.9h0Z"/>
    <path class="cls-2" d="M1008.54,162.6c-5.6-16.2-11-32.5-16.7-48.7-6.5-18.8-13.2-37.6-19.8-56.4-1.7-6.8-5.1-12.9-6.3-19.9,8.7,0,17.3,.1,26-.1,3-.1,4.1,1,5.1,3.8,9.2,26.8,18.5,53.5,27.8,80.3,.4,1.1,.9,2.1,1.4,3.2,7,20.6,14,41.3,21.5,63.4,4-11.5,7.5-21.5,11.1-31.6,13.2-37.9,26.5-75.9,39.6-113.9,1.3-3.8,2.9-5.4,7-5.2,8,.4,16.1,.1,24.8,.1-3.5,10-6.8,19.6-10.2,29.1-15.4,44.2-30.7,88.4-46.1,132.6-4.3,12.3-8.7,24.6-13,36.9-2.3,6.5-5.3,12.8-12.9,12.9-7.5,0-10.9-6.1-13.1-12.6-7.9-22.6-15.7-45.2-23.6-67.8-.5-1.4-1.2-2.7-1.7-4.1-.1-.7-.2-1.5-.9-2Z"/>
    <path class="cls-2" d="M817.24,245.7c-.1-8-.2-16-.3-24,.1-27.8,.1-55.6,.2-83.5,0-9.8-.1-19.7-.1-29.5v-1c.2-.3,.1-.6,0-.9v-7.1c0-6.7-.1-13.3,.2-20,.2-3.4-1.1-4-4.1-4-16.9,.1-33.8,0-50.6,.2-3.7,0-4.9-.9-4.8-4.9,.1-10,.6-20-.3-29.9-.4-4.2,2.3-3.4,4.6-3.4h96.9c13.2,0,26.4,.2,39.5-.1,4.2-.1,5,1.3,4.9,5.3-.3,9.5-.3,19,0,28.5,.1,3.9-1.1,4.6-4.6,4.5-16.1-.2-32.2-.1-48.2-.1q-6.4,0-6.4,6.5c0,53.3,.1,106.6,0,159.8,0,1.4,1.8,4.3-1.8,4.4-3.2-1.2-6.4-1.2-9.6,0h-14.6c-.4-.3-.6-.6-.9-.8Z"/>
    <path class="cls-2" d="M950.24,142.2c0,33.2-.1,66.3,.1,99.5,0,4-1,5.2-4.8,5-5.9-.3-11.9-.3-17.8,0-3.7,.2-4.6-1.1-4.6-4.7,.1-28.3,.1-56.7,.1-85,0-38.2,.1-76.3,0-114.5,0-3.8,.8-5.1,4.7-4.9,5.8,.4,11.6,.4,17.4,0,3.9-.2,5.1,.9,5.1,5.1-.3,33.2-.2,66.3-.2,99.5h0Z"/>
    <path class="cls-2" d="M80.04,161.3c-12.9,0-25.7-.1-38.6,.1-2.9,0-3.9-.7-3.8-3.9,.2-10.3,.1-20.6,0-31,0-2.6,.3-3.8,3.3-3.8,26,.1,52.1,.1,78.1,0,2.9,0,3.4,1.1,3.4,3.8-.1,10.3-.1,20.6,.1,31,.1,3.3-1.3,3.8-4,3.8-12.8-.1-25.6-.1-38.5,0h0Z"/>
    <path class="cls-2" d="M1224.44,122.8c12.9,0,25.7,.1,38.6-.1,3.2,0,4.1,.8,4,4.1-.2,10-.1,20,0,30,0,3.2-.6,4.6-4.2,4.6-25.7-.2-51.4-.1-77.1,.1-2.9,0-3.8-.9-3.8-4,.2-10.1,.2-20.3,0-30.5-.1-3.8,1.3-4.3,4.4-4.2,12.7,.1,25.4,0,38.1,0h0Z"/>
  </g>
  <g id="centro">
    <path class="cls-6" d="M636.44,232.4c-23.6-1.5-46.1-11.2-63.3-32.3-3.8-4.7-3.8-10.3-.1-13.8,4.4-4.1,9.5-3.7,13.9,1.4,13.3,15.3,29.5,24,49.6,25.1,22.1,1.2,40.5-6.8,55.5-23.4,2.2-2.4,4.2-5.1,7.6-5.7,4.2-.7,7.6,.9,9.7,4.9,2.1,4,1.4,7.7-1.3,11.1-8.1,9.9-17.8,17.8-29,23.4-12.6,6.3-26.1,9-42.6,9.3Z"/>
    <path class="cls-1" d="M639.94,113.3c15.1,.3,27.2,12.8,27.1,27.9-.1,15.5-12.7,28.5-27.5,28.3-15.1-.2-27.2-13.1-26.9-28.6,.5-15.8,12.5-28,27.3-27.6Z"/>
    <path class="cls-5" d="M679.64,22.4c4.8,2.2,9.6,4.3,14.4,6.5,.6,.7,1.2,.8,2,.5,8.3,5.7,16.9,10.9,24.2,18,2.1,2,4.3,4,6.1,6.3,3.2,4,3.1,8.9,0,12.7-3,3.8-7.9,4.7-12.1,2.3-1.4-.8-2.6-1.9-3.8-3-33.8-31.4-71.7-37.6-113.6-20-4.8,2-9,5.1-13.4,7.8-5.7,3.4-11.2,2.1-14.2-3-2.9-5-1.4-10.4,3.9-14.1,12-8.3,25.2-13.8,39.1-17.5,.6-.1,1.2-.3,1.8-.4,7.2-1.1,14.5-2.4,21.8-2.8,15-.9,29.5,2.2,43.8,6.7Z"/>
    <path class="cls-5" d="M756.74,175.2c-6.8,23-18.1,43-35.5,59.1-4.4,4.1-9.2,7.7-13.8,11.5-12.9,8.3-26.6,14.8-41.5,18.2-.6,.2-1.2,.4-1.7,.6-4,0-7.7-.8-10.2-4.5-4.6-6.8-1-14.7,7.8-16.5,13.7-2.9,26.2-8.6,37.4-17,23.8-17.8,37.2-42.1,41.3-72,2.8-20.3-.7-39.7-8.8-58.3-1.3-3-3.3-5.9-2.5-9.4,.9-4.4,3.6-7.4,7.9-8.4,5-1.2,8.4,1.3,10.7,5.6,5.3,10,8.8,20.6,11.1,31.7,2.5,11.8,2,23.8,1.9,35.8-.7,5.3-1.5,10.6-2.2,16v.3c-.8,.7-.8,1.7-.6,2.7-1.5,1.2-1.1,3-1.3,4.6Z"/>
    <path class="cls-4" d="M639.44,199.6c-27.7-.1-51.5-20.7-56.1-48.6-4.7-28.4,11.2-56.6,37.5-66.2,.9-.3,1.8-.6,2.8-.8,5.8-1.6,9.8,.2,11.4,5.1,1.5,4.9-.7,9.3-6.2,11.2-8.4,2.8-15.4,7.4-20.9,14.5-11.3,14.7-11.6,36.4-.7,51,11.3,15.2,30.6,20.6,48,13.2,16.4-6.9,27.2-25.7,24.3-43.9-2.4-15.4-10.4-27-24.8-33.1-1.3-.6-2.7-1-4-1.6-4.9-2.3-6.9-6.7-5.3-11.3,1.5-4.5,6-6.7,11-5.1,8.2,2.6,15.8,6.6,22,12.9,17.2,17.4,23.1,38.3,15.6,62-7.5,23.6-23.9,37.2-47.8,40.7-.6,.1-1.3,.2-1.9,.2-1.7-.2-3.3-.2-4.9-.2Z"/>
    <path class="cls-5" d="M525.94,97.6c.2-.6,.4-1.2,.6-1.9,3.8-8.6,7.8-17,12.8-25,.8-.7,1.4-1.5,1.6-2.7,2.8-2.8,4.8-6.6,9.5-6.9,7.4-.5,12.6,6.1,10.1,13.3-.5,1.5-1.4,3-2.3,4.3-28.8,41.5-26.4,95.4,6.2,133.3,16.2,18.8,36.9,29.5,60.9,33.4,3.8,.6,7.9,.9,10.1,4.8,2,3.4,2.6,7.1,.4,10.9-2.3,4-5.9,5.4-10.2,5.1-6.6-.5-12.9-2.6-19.3-4-8.1-3.3-16.1-6.5-24.2-9.8-11.8-7.5-22.6-16.4-32.6-26.5h-.1l-.1-.4c-10.7-12.9-18.9-27.3-24.6-43.3-4.2-14.2-6.8-28.7-6.4-43.7,.3-10.5,2.2-20.8,4.2-31.1,1.2-2.7,2.2-5.5,2.7-8.5,.2-.3,.5-.8,.7-1.3Z"/>
    <path class="cls-3" d="M639.84,49.4c41.1-1,77.7,29.2,87,72.3,2.5,11.7,2.6,23.4,.8,35.2-1,6.7-5.8,11.3-10.7,10.5-6.2-1-9.1-6-7.8-13.4,7.9-45.1-25.5-85.6-69.8-85.5-37.2,0-68.6,32-68.8,71.7,0,3.2,.2,6.3,.2,9.5-.1,5.3-3,8.9-7.8,9.7-4.2,.7-8.4-2.1-9.8-7-1.8-6.5-1.3-13.3-.7-19.9,1.7-19,8.6-36,20.4-50.8,14.6-18.5,40.5-33.4,67-32.3Z"/>
  </g>
</svg>